HIERARCHY
ROOT Pelvis
{
	OFFSET 0.000000 0.941512 0.000000
	CHANNELS 6 Xposition Yposition Zposition Zrotation Yrotation Xrotation 
	JOINT Pelvis_L_Hip
	{
		OFFSET 0.000000 0.000000 0.000000
		CHANNELS 3 Zrotation Yrotation Xrotation
		JOINT L_Hip
		{
			OFFSET 0.062321 -0.080322 -0.016990
			CHANNELS 3 Zrotation Yrotation Xrotation
			JOINT L_Knee
			{
				OFFSET 0.093051 -0.381305 -0.029784
				CHANNELS 3 Zrotation Yrotation Xrotation
				JOINT L_Ankle
				{
					OFFSET -0.010371 -0.431000 -0.033614
					CHANNELS 3 Zrotation Yrotation Xrotation
					End Site #name: L_Foot
					{
						OFFSET 0.069299 -0.038670 0.119418
					}
				}
			}
		}
	}
	JOINT Pelvis_R_Hip
	{
		OFFSET 0.000000 0.000000 0.000000
		CHANNELS 3 Zrotation Yrotation Xrotation
		JOINT R_Hip
		{
			OFFSET -0.055334 -0.094904 -0.002373
			CHANNELS 3 Zrotation Yrotation Xrotation
			JOINT R_Knee
			{
				OFFSET -0.064207 -0.384370 -0.019592
				CHANNELS 3 Zrotation Yrotation Xrotation
				JOINT R_Ankle
				{
					OFFSET 0.025418 -0.419734 -0.065953
					CHANNELS 3 Zrotation Yrotation Xrotation
					End Site #name: R_Foot
					{
						OFFSET -0.057233 -0.039888 0.132134
					}
				}
			}
		}
	}
	JOINT Pelvis_Spine1
	{
		OFFSET 0.000000 0.000000 0.000000
		CHANNELS 3 Zrotation Yrotation Xrotation
		JOINT Spine1
		{
			OFFSET -0.005562 0.124093 -0.043360
			CHANNELS 3 Zrotation Yrotation Xrotation
			JOINT Spine2
			{
				OFFSET 0.012244 0.139499 0.029894
				CHANNELS 3 Zrotation Yrotation Xrotation
				JOINT Spine3
				{
					OFFSET -0.002556 0.056561 0.009225
					CHANNELS 3 Zrotation Yrotation Xrotation
					JOINT Spine3_Neck
					{
						OFFSET 0.000000 0.000000 0.000000
						CHANNELS 3 Zrotation Yrotation Xrotation
						JOINT Neck
						{
							OFFSET -0.005205 0.217920 -0.024551
							CHANNELS 3 Zrotation Yrotation Xrotation
							End Site #name: Head
							{
								OFFSET 0.002365 0.091850 0.046637
							}
						}
					}
					JOINT Spine3_L_Collar
					{
						OFFSET 0.000000 0.000000 0.000000
						CHANNELS 3 Zrotation Yrotation Xrotation
						JOINT L_Collar
						{
							OFFSET 0.072225 0.116603 -0.009480
							CHANNELS 3 Zrotation Yrotation Xrotation
							JOINT L_Shoulder
							{
								OFFSET 0.115937 -0.058643 -0.021018
								CHANNELS 3 Zrotation Yrotation Xrotation
								JOINT L_Elbow
								{
									OFFSET 0.021994 -0.254722 -0.024492
									CHANNELS 3 Zrotation Yrotation Xrotation
									End Site #name: L_Wrist
									{
										OFFSET 0.048810 -0.240214 0.103329
									}
								}
							}
						}
					}
					JOINT Spine3_R_Collar
					{
						OFFSET 0.000000 0.000000 0.000000
						CHANNELS 3 Zrotation Yrotation Xrotation
						JOINT R_Collar
						{
							OFFSET -0.073372 0.120704 -0.024611
							CHANNELS 3 Zrotation Yrotation Xrotation
							JOINT R_Shoulder
							{
								OFFSET -0.108089 -0.054969 -0.020504
								CHANNELS 3 Zrotation Yrotation Xrotation
								JOINT R_Elbow
								{
									OFFSET -0.033684 -0.260739 0.009889
									CHANNELS 3 Zrotation Yrotation Xrotation
									End Site #name: R_Wrist
									{
										OFFSET -0.067980 -0.232763 0.118463
									}
								}
							}
						}
					}
				}
			}
		}
	}
}
MOTION
Frames: 8
Frame Time: 0.041667
0.000000 0.954847 0.000000 -2.304677 -4.953440 -9.009522 0.000000 0.000000 0.000000 -7.176136 0.586413 0.522278 4.211102 -1.323744 17.231475 -2.990273 -11.699510 -0.924097 0.000000 0.000000 0.000000 8.588387 -1.867056 6.598285 -0.865561 0.283511 2.121962 3.471057 6.377965 3.103687 0.000000 0.000000 0.000000 3.690938 -1.102315 3.340726 -6.080579 6.979543 46.334585 4.211861 4.584973 -46.446417 0.000000 0.000000 0.000000 -0.635670 -0.457728 28.265365 0.000000 0.000000 0.000000 19.416226 -2.148495 2.036146 -11.993880 0.663443 1.825659 0.654729 -0.212964 -2.305367 0.000000 0.000000 0.000000 -22.745078 2.610595 2.615490 13.512511 -2.072141 13.895681 0.322489 2.969582 -8.560745 
0.002451 0.955476 0.002446 -2.576313 -4.546919 -8.849600 0.000000 0.000000 0.000000 -6.386812 0.880013 1.631429 3.345655 -1.020113 14.873446 -3.815838 -12.313966 0.095215 0.000000 0.000000 0.000000 8.242863 -2.430120 9.103022 -0.452997 -0.094286 -2.503258 4.692352 7.247256 4.953764 0.000000 0.000000 0.000000 3.572966 -0.976114 2.425284 -6.448121 7.144061 46.303876 4.377723 4.756406 -46.899294 0.000000 0.000000 0.000000 -0.500548 -0.603425 28.623717 0.000000 0.000000 0.000000 19.209145 -1.872070 2.223468 -11.650488 0.636019 1.797075 0.793713 -0.042446 -1.797887 0.000000 0.000000 0.000000 -22.863883 2.061426 3.046391 14.523589 -2.007726 13.651203 -0.186616 2.632390 -8.501909 
0.004487 0.955643 0.002347 -2.596493 -4.398890 -8.417897 0.000000 0.000000 0.000000 -6.526872 1.139568 2.411351 3.576720 -0.940873 12.286466 -4.400529 -12.779645 0.792035 0.000000 0.000000 0.000000 8.422940 -2.256911 8.239431 -0.737299 -0.022437 -1.990736 4.584037 6.764342 5.053056 0.000000 0.000000 0.000000 3.524877 -0.871354 1.555946 -6.916802 7.496027 46.680002 4.327649 4.897048 -47.477577 0.000000 0.000000 0.000000 -0.476813 -0.632310 28.054994 0.000000 0.000000 0.000000 18.976168 -1.893288 2.173915 -10.852796 0.582454 1.728321 1.396500 0.210630 -1.858478 0.000000 0.000000 0.000000 -22.795076 2.469828 2.675171 14.895871 -2.066267 13.922604 -0.039308 2.781438 -8.675689 
0.007678 0.955366 0.001622 -2.520639 -4.756311 -8.322364 0.000000 0.000000 0.000000 -7.120685 1.892778 4.611017 4.538606 -0.848240 7.721207 -5.236381 -13.202496 1.895036 0.000000 0.000000 0.000000 8.357619 -1.945023 6.954619 -0.912049 0.123830 -0.224450 4.429091 6.557123 4.861153 0.000000 0.000000 0.000000 3.865258 -0.941751 1.542893 -7.257569 7.775614 46.654174 3.901914 4.866450 -47.798964 0.000000 0.000000 0.000000 -1.046925 -0.209211 27.860926 0.000000 0.000000 0.000000 18.951849 -1.796723 2.245559 -10.420950 0.546818 1.650468 2.649818 0.698559 -2.187195 0.000000 0.000000 0.000000 -22.792154 3.095346 2.169235 14.568105 -2.017195 13.774163 0.689615 3.368897 -9.060004 
0.009302 0.955837 0.000219 -2.523751 -5.143561 -8.371783 0.000000 0.000000 0.000000 -7.020537 2.522922 6.609065 4.587632 -0.627131 4.002761 -5.914118 -13.470819 2.818574 0.000000 0.000000 0.000000 8.204908 -1.808686 6.450800 -0.857720 0.171859 0.579293 4.622131 7.170408 4.828867 0.000000 0.000000 0.000000 3.921718 -0.959928 1.609033 -7.036830 7.722851 46.791217 3.510369 4.700394 -47.998039 0.000000 0.000000 0.000000 -1.603846 0.217823 27.850026 0.000000 0.000000 0.000000 18.901938 -1.784729 2.231143 -9.753003 0.640654 2.301540 2.696706 0.630368 -2.630103 0.000000 0.000000 0.000000 -22.618673 3.688847 1.673205 13.965295 -1.912913 13.393138 1.007743 3.864407 -9.868916 
0.010242 0.954724 -0.001415 -2.520923 -5.151668 -8.456634 0.000000 0.000000 0.000000 -6.918029 2.641518 7.022491 4.341730 -0.549041 3.178988 -5.988323 -13.595697 2.873651 0.000000 0.000000 0.000000 8.033052 -1.856301 6.730807 -0.613575 0.096223 0.038087 4.507478 7.011364 4.707544 0.000000 0.000000 0.000000 3.785751 -0.945581 1.742209 -6.775510 7.561016 46.834288 3.566694 4.577335 -48.144762 0.000000 0.000000 0.000000 -1.491816 0.151131 28.071878 0.000000 0.000000 0.000000 19.175591 -2.022557 2.091792 -9.885590 0.772016 3.006742 2.543084 0.550908 -2.683162 0.000000 0.000000 0.000000 -22.692636 3.624745 1.761804 13.734910 -1.659678 12.404605 0.784520 3.958107 -10.512356 
0.009864 0.952820 -0.003056 -2.670439 -5.057340 -8.180031 0.000000 0.000000 0.000000 -6.787559 2.507784 6.647813 4.342423 -0.541011 3.049320 -5.960447 -13.600246 2.826656 0.000000 0.000000 0.000000 8.278054 -1.879308 6.702766 -0.545287 0.032065 -0.762552 4.340699 6.623769 4.632991 0.000000 0.000000 0.000000 3.759964 -0.941735 1.731431 -6.503217 7.392126 46.981436 3.759745 4.145678 -48.295969 0.000000 0.000000 0.000000 -1.382069 0.140327 27.519445 0.000000 0.000000 0.000000 18.743197 -3.135158 1.106465 -9.103554 1.137161 5.320614 2.354649 0.252186 -3.722890 0.000000 0.000000 0.000000 -22.070670 3.417692 1.850374 13.080276 -1.486933 11.694856 0.319975 4.045038 -11.559732 
0.010367 0.951848 -0.004966 -2.709782 -5.189795 -7.834745 0.000000 0.000000 0.000000 -6.976324 2.245294 5.737321 4.435166 -0.594222 3.747963 -5.815241 -13.165835 2.812347 0.000000 0.000000 0.000000 8.309467 -1.789973 6.285466 -0.591944 0.025805 -0.955076 4.410510 6.790272 4.655454 0.000000 0.000000 0.000000 3.921668 -0.970647 1.658744 -6.375065 7.304257 46.817563 3.597978 4.012677 -48.204410 0.000000 0.000000 0.000000 -1.470024 0.219211 27.466661 0.000000 0.000000 0.000000 19.084596 -3.219881 1.099819 -9.545717 1.107377 4.979854 2.198633 0.358888 -2.859899 0.000000 0.000000 0.000000 -22.125252 3.035631 2.174990 13.473880 -1.398215 11.360024 -0.312268 3.801407 -12.048483 
